# This file uses centimeters as units for non-parametric coordinates.

g default
v -1.000000 0.000000 -3.144734
v -0.500000 0.000000 -3.144734
v 0.000000 0.000000 -3.144734
v 0.500000 0.000000 -3.144734
v 1.000000 0.000000 -3.144734
v -1.000000 0.750000 -3.144734
v -0.500000 0.750000 -3.144734
v 0.000000 0.750000 -3.144734
v 0.500000 0.750000 -3.144734
v 1.000000 0.750000 -3.144734
v -1.000000 1.500000 -3.144734
v -0.500000 1.500000 -3.144734
v 0.000000 1.500000 -3.144734
v 0.500000 1.500000 -3.144734
v 1.000000 1.500000 -3.144734
v -1.000000 2.250000 -3.144734
v -0.500000 2.250000 -3.144734
v 0.000000 2.250000 -3.144734
v 0.500000 2.250000 -3.144734
v 1.000000 2.250000 -3.144734
v -1.000000 3.000000 -3.144734
v -0.500000 3.000000 -3.144734
v 0.000000 3.000000 -3.144734
v 0.500000 3.000000 -3.144734
v 1.000000 3.000000 -3.144734
v -1.000000 3.000000 -3.644734
v -0.500000 3.000000 -3.644734
v 0.000000 3.000000 -3.644734
v 0.500000 3.000000 -3.644734
v 1.000000 3.000000 -3.644734
v -1.000000 3.000000 -4.144734
v -0.500000 3.000000 -4.144734
v 0.000000 3.000000 -4.144734
v 0.500000 3.000000 -4.144734
v 1.000000 3.000000 -4.144734
v -1.000000 3.000000 -4.644734
v -0.500000 3.000000 -4.644734
v 0.000000 3.000000 -4.644734
v 0.500000 3.000000 -4.644734
v 1.000000 3.000000 -4.644734
v -1.000000 3.000000 -5.144734
v -0.500000 3.000000 -5.144734
v 0.000000 3.000000 -5.144734
v 0.500000 3.000000 -5.144734
v 1.000000 3.000000 -5.144734
v -1.000000 2.250000 -5.144734
v -0.500000 2.250000 -5.144734
v 0.000000 2.250000 -5.144734
v 0.500000 2.250000 -5.144734
v 1.000000 2.250000 -5.144734
v -1.000000 1.500000 -5.144734
v -0.500000 1.500000 -5.144734
v 0.000000 1.500000 -5.144734
v 0.500000 1.500000 -5.144734
v 1.000000 1.500000 -5.144734
v -1.000000 0.750000 -5.144734
v -0.500000 0.750000 -5.144734
v 0.000000 0.750000 -5.144734
v 0.500000 0.750000 -5.144734
v 1.000000 0.750000 -5.144734
v -1.000000 0.000000 -5.144734
v -0.500000 0.000000 -5.144734
v 0.000000 0.000000 -5.144734
v 0.500000 0.000000 -5.144734
v 1.000000 0.000000 -5.144734
v -1.000000 0.000000 -4.644734
v -0.500000 0.000000 -4.644734
v 0.000000 0.000000 -4.644734
v 0.500000 0.000000 -4.644734
v 1.000000 0.000000 -4.644734
v -1.000000 0.000000 -4.144734
v -0.500000 0.000000 -4.144734
v 0.000000 0.000000 -4.144734
v 0.500000 0.000000 -4.144734
v 1.000000 0.000000 -4.144734
v -1.000000 0.000000 -3.644734
v -0.500000 0.000000 -3.644734
v 0.000000 0.000000 -3.644734
v 0.500000 0.000000 -3.644734
v 1.000000 0.000000 -3.644734
v 1.000000 0.750000 -4.644734
v 1.000000 0.750000 -4.144734
v 1.000000 0.750000 -3.644734
v 1.000000 1.500000 -4.644734
v 1.000000 1.500000 -4.144734
v 1.000000 1.500000 -3.644734
v 1.000000 2.250000 -4.644734
v 1.000000 2.250000 -4.144734
v 1.000000 2.250000 -3.644734
v -1.000000 0.750000 -4.644734
v -1.000000 0.750000 -4.144734
v -1.000000 0.750000 -3.644734
v -1.000000 1.500000 -4.644734
v -1.000000 1.500000 -4.144734
v -1.000000 1.500000 -3.644734
v -1.000000 2.250000 -4.644734
v -1.000000 2.250000 -4.144734
v -1.000000 2.250000 -3.644734
vt 0.680797 0.741348
vt 0.680804 0.802154
vt 0.589586 0.802165
vt 0.589587 0.741344
vt 0.680811 0.862962
vt 0.589590 0.862981
vt 0.680817 0.923770
vt 0.589594 0.923799
vt 0.680835 0.984581
vt 0.589606 0.984613
vt 0.498372 0.802163
vt 0.498374 0.741342
vt 0.498371 0.862983
vt 0.498368 0.923804
vt 0.498367 0.984622
vt 0.407159 0.802160
vt 0.407162 0.741340
vt 0.407152 0.862977
vt 0.407143 0.923796
vt 0.407128 0.984611
vt 0.315940 0.802146
vt 0.315951 0.741342
vt 0.315931 0.862953
vt 0.315923 0.923760
vt 0.315895 0.984569
vt 0.255154 0.741368
vt 0.255135 0.680553
vt 0.315943 0.680534
vt 0.194353 0.741389
vt 0.194327 0.680574
vt 0.133551 0.741419
vt 0.133517 0.680603
vt 0.072740 0.741459
vt 0.072704 0.680644
vt 0.255120 0.619736
vt 0.315934 0.619721
vt 0.194304 0.619759
vt 0.133488 0.619790
vt 0.072674 0.619828
vt 0.255101 0.558921
vt 0.315923 0.558902
vt 0.194280 0.558944
vt 0.133462 0.558975
vt 0.072643 0.559014
vt 0.255082 0.498107
vt 0.315914 0.498083
vt 0.194254 0.498128
vt 0.133426 0.498160
vt 0.072607 0.498200
vt 0.315929 0.437264
vt 0.407153 0.437274
vt 0.407147 0.498084
vt 0.315933 0.376451
vt 0.407157 0.376461
vt 0.315934 0.315640
vt 0.407157 0.315644
vt 0.315932 0.254828
vt 0.407153 0.254827
vt 0.498383 0.437272
vt 0.498379 0.498081
vt 0.498380 0.376459
vt 0.498378 0.315643
vt 0.498376 0.254827
vt 0.589610 0.437272
vt 0.589612 0.498085
vt 0.589605 0.376453
vt 0.589601 0.315638
vt 0.589598 0.254821
vt 0.680833 0.437261
vt 0.680845 0.498085
vt 0.680826 0.376443
vt 0.680824 0.315626
vt 0.680820 0.254812
vt 0.741677 0.498110
vt 0.741655 0.558925
vt 0.680835 0.558909
vt 0.802508 0.498134
vt 0.802476 0.558952
vt 0.863334 0.498171
vt 0.863297 0.558986
vt 0.924154 0.498214
vt 0.924113 0.559027
vt 0.741634 0.619741
vt 0.680818 0.619726
vt 0.802449 0.619766
vt 0.863266 0.619801
vt 0.924079 0.619844
vt 0.741615 0.680556
vt 0.680806 0.680538
vt 0.802422 0.680580
vt 0.863231 0.680614
vt 0.924045 0.680660
vt 0.741592 0.741371
vt 0.802390 0.741395
vt 0.863192 0.741430
vt 0.924002 0.741477
vt 0.680820 0.193999
vt 0.589597 0.194006
vt 0.680817 0.133184
vt 0.589596 0.133191
vt 0.680817 0.072371
vt 0.589595 0.072373
vt 0.680815 0.011556
vt 0.589592 0.011558
vt 0.498374 0.194011
vt 0.498373 0.133196
vt 0.498373 0.072380
vt 0.498371 0.011565
vt 0.407152 0.194012
vt 0.407150 0.133197
vt 0.407150 0.072379
vt 0.407149 0.011564
vt 0.315930 0.194012
vt 0.315930 0.133197
vt 0.315929 0.072380
vt 0.315929 0.011564
vt 0.589607 0.558896
vt 0.589598 0.619709
vt 0.589590 0.680527
vt 0.498378 0.558890
vt 0.498375 0.619704
vt 0.498375 0.680523
vt 0.407149 0.558896
vt 0.407154 0.619708
vt 0.407160 0.680524
vn 0.000000 0.000000 1.000000
vn 0.000000 0.000000 1.000000
vn 0.000000 0.000000 1.000000
vn 0.000000 0.000000 1.000000
vn 0.000000 0.000000 1.000000
vn 0.000000 0.000000 1.000000
vn 0.000000 0.000000 1.000000
vn 0.000000 0.000000 1.000000
vn 0.000000 0.000000 1.000000
vn 0.000000 0.000000 1.000000
vn 0.000000 0.000000 1.000000
vn 0.000000 0.000000 1.000000
vn 0.000000 0.000000 1.000000
vn 0.000000 0.000000 1.000000
vn 0.000000 0.000000 1.000000
vn 0.000000 0.000000 1.000000
vn 0.000000 0.000000 1.000000
vn 0.000000 0.000000 1.000000
vn 0.000000 0.000000 1.000000
vn 0.000000 0.000000 1.000000
vn 0.000000 0.000000 1.000000
vn 0.000000 0.000000 1.000000
vn 0.000000 0.000000 1.000000
vn 0.000000 0.000000 1.000000
vn 0.000000 0.000000 1.000000
vn 0.000000 0.000000 1.000000
vn 0.000000 0.000000 1.000000
vn 0.000000 0.000000 1.000000
vn 0.000000 0.000000 1.000000
vn 0.000000 0.000000 1.000000
vn 0.000000 0.000000 1.000000
vn 0.000000 0.000000 1.000000
vn 0.000000 0.000000 1.000000
vn 0.000000 0.000000 1.000000
vn 0.000000 0.000000 1.000000
vn 0.000000 0.000000 1.000000
vn 0.000000 0.000000 1.000000
vn 0.000000 0.000000 1.000000
vn 0.000000 0.000000 1.000000
vn 0.000000 0.000000 1.000000
vn 0.000000 0.000000 1.000000
vn 0.000000 0.000000 1.000000
vn 0.000000 0.000000 1.000000
vn 0.000000 0.000000 1.000000
vn 0.000000 0.000000 1.000000
vn 0.000000 0.000000 1.000000
vn 0.000000 0.000000 1.000000
vn 0.000000 0.000000 1.000000
vn 0.000000 0.000000 1.000000
vn 0.000000 0.000000 1.000000
vn 0.000000 0.000000 1.000000
vn 0.000000 0.000000 1.000000
vn 0.000000 0.000000 1.000000
vn 0.000000 0.000000 1.000000
vn 0.000000 0.000000 1.000000
vn 0.000000 0.000000 1.000000
vn 0.000000 0.000000 1.000000
vn 0.000000 0.000000 1.000000
vn 0.000000 0.000000 1.000000
vn 0.000000 0.000000 1.000000
vn 0.000000 0.000000 1.000000
vn 0.000000 0.000000 1.000000
vn 0.000000 0.000000 1.000000
vn 0.000000 0.000000 1.000000
vn 0.000000 1.000000 0.000000
vn 0.000000 1.000000 0.000000
vn 0.000000 1.000000 0.000000
vn 0.000000 1.000000 0.000000
vn 0.000000 1.000000 0.000000
vn 0.000000 1.000000 0.000000
vn 0.000000 1.000000 0.000000
vn 0.000000 1.000000 0.000000
vn 0.000000 1.000000 0.000000
vn 0.000000 1.000000 0.000000
vn 0.000000 1.000000 0.000000
vn 0.000000 1.000000 0.000000
vn 0.000000 1.000000 0.000000
vn 0.000000 1.000000 0.000000
vn 0.000000 1.000000 0.000000
vn 0.000000 1.000000 0.000000
vn 0.000000 1.000000 0.000000
vn 0.000000 1.000000 0.000000
vn 0.000000 1.000000 0.000000
vn 0.000000 1.000000 0.000000
vn 0.000000 1.000000 0.000000
vn 0.000000 1.000000 0.000000
vn 0.000000 1.000000 0.000000
vn 0.000000 1.000000 0.000000
vn 0.000000 1.000000 0.000000
vn 0.000000 1.000000 0.000000
vn 0.000000 1.000000 0.000000
vn 0.000000 1.000000 0.000000
vn 0.000000 1.000000 0.000000
vn 0.000000 1.000000 0.000000
vn 0.000000 1.000000 0.000000
vn 0.000000 1.000000 0.000000
vn 0.000000 1.000000 0.000000
vn 0.000000 1.000000 0.000000
vn 0.000000 1.000000 0.000000
vn 0.000000 1.000000 0.000000
vn 0.000000 1.000000 0.000000
vn 0.000000 1.000000 0.000000
vn 0.000000 1.000000 0.000000
vn 0.000000 1.000000 0.000000
vn 0.000000 1.000000 0.000000
vn 0.000000 1.000000 0.000000
vn 0.000000 1.000000 0.000000
vn 0.000000 1.000000 0.000000
vn 0.000000 1.000000 0.000000
vn 0.000000 1.000000 0.000000
vn 0.000000 1.000000 0.000000
vn 0.000000 1.000000 0.000000
vn 0.000000 1.000000 0.000000
vn 0.000000 1.000000 0.000000
vn 0.000000 1.000000 0.000000
vn 0.000000 1.000000 0.000000
vn 0.000000 1.000000 0.000000
vn 0.000000 1.000000 0.000000
vn 0.000000 1.000000 0.000000
vn 0.000000 1.000000 0.000000
vn 0.000000 1.000000 0.000000
vn 0.000000 1.000000 0.000000
vn 0.000000 1.000000 0.000000
vn 0.000000 1.000000 0.000000
vn 0.000000 1.000000 0.000000
vn 0.000000 1.000000 0.000000
vn 0.000000 1.000000 0.000000
vn 0.000000 1.000000 0.000000
vn 0.000000 0.000000 -1.000000
vn 0.000000 0.000000 -1.000000
vn 0.000000 0.000000 -1.000000
vn 0.000000 0.000000 -1.000000
vn 0.000000 0.000000 -1.000000
vn 0.000000 0.000000 -1.000000
vn 0.000000 0.000000 -1.000000
vn 0.000000 0.000000 -1.000000
vn 0.000000 0.000000 -1.000000
vn 0.000000 0.000000 -1.000000
vn 0.000000 0.000000 -1.000000
vn 0.000000 0.000000 -1.000000
vn 0.000000 0.000000 -1.000000
vn 0.000000 0.000000 -1.000000
vn 0.000000 0.000000 -1.000000
vn 0.000000 0.000000 -1.000000
vn 0.000000 0.000000 -1.000000
vn 0.000000 0.000000 -1.000000
vn 0.000000 0.000000 -1.000000
vn 0.000000 0.000000 -1.000000
vn 0.000000 0.000000 -1.000000
vn 0.000000 0.000000 -1.000000
vn 0.000000 0.000000 -1.000000
vn 0.000000 0.000000 -1.000000
vn 0.000000 0.000000 -1.000000
vn 0.000000 0.000000 -1.000000
vn 0.000000 0.000000 -1.000000
vn 0.000000 0.000000 -1.000000
vn 0.000000 0.000000 -1.000000
vn 0.000000 0.000000 -1.000000
vn 0.000000 0.000000 -1.000000
vn 0.000000 0.000000 -1.000000
vn 0.000000 0.000000 -1.000000
vn 0.000000 0.000000 -1.000000
vn 0.000000 0.000000 -1.000000
vn 0.000000 0.000000 -1.000000
vn 0.000000 0.000000 -1.000000
vn 0.000000 0.000000 -1.000000
vn 0.000000 0.000000 -1.000000
vn 0.000000 0.000000 -1.000000
vn 0.000000 0.000000 -1.000000
vn 0.000000 0.000000 -1.000000
vn 0.000000 0.000000 -1.000000
vn 0.000000 0.000000 -1.000000
vn 0.000000 0.000000 -1.000000
vn 0.000000 0.000000 -1.000000
vn 0.000000 0.000000 -1.000000
vn 0.000000 0.000000 -1.000000
vn 0.000000 0.000000 -1.000000
vn 0.000000 0.000000 -1.000000
vn 0.000000 0.000000 -1.000000
vn 0.000000 0.000000 -1.000000
vn 0.000000 0.000000 -1.000000
vn 0.000000 0.000000 -1.000000
vn 0.000000 0.000000 -1.000000
vn 0.000000 0.000000 -1.000000
vn 0.000000 0.000000 -1.000000
vn 0.000000 0.000000 -1.000000
vn 0.000000 0.000000 -1.000000
vn 0.000000 0.000000 -1.000000
vn 0.000000 0.000000 -1.000000
vn 0.000000 0.000000 -1.000000
vn 0.000000 0.000000 -1.000000
vn 0.000000 0.000000 -1.000000
vn 0.000000 -1.000000 0.000000
vn 0.000000 -1.000000 0.000000
vn 0.000000 -1.000000 0.000000
vn 0.000000 -1.000000 0.000000
vn 0.000000 -1.000000 0.000000
vn 0.000000 -1.000000 0.000000
vn 0.000000 -1.000000 0.000000
vn 0.000000 -1.000000 0.000000
vn 0.000000 -1.000000 0.000000
vn 0.000000 -1.000000 0.000000
vn 0.000000 -1.000000 0.000000
vn 0.000000 -1.000000 0.000000
vn 0.000000 -1.000000 0.000000
vn 0.000000 -1.000000 0.000000
vn 0.000000 -1.000000 0.000000
vn 0.000000 -1.000000 0.000000
vn 0.000000 -1.000000 0.000000
vn 0.000000 -1.000000 0.000000
vn 0.000000 -1.000000 0.000000
vn 0.000000 -1.000000 0.000000
vn 0.000000 -1.000000 0.000000
vn 0.000000 -1.000000 0.000000
vn 0.000000 -1.000000 0.000000
vn 0.000000 -1.000000 0.000000
vn 0.000000 -1.000000 0.000000
vn 0.000000 -1.000000 0.000000
vn 0.000000 -1.000000 0.000000
vn 0.000000 -1.000000 0.000000
vn 0.000000 -1.000000 0.000000
vn 0.000000 -1.000000 0.000000
vn 0.000000 -1.000000 0.000000
vn 0.000000 -1.000000 0.000000
vn 0.000000 -1.000000 0.000000
vn 0.000000 -1.000000 0.000000
vn 0.000000 -1.000000 0.000000
vn 0.000000 -1.000000 0.000000
vn 0.000000 -1.000000 0.000000
vn 0.000000 -1.000000 0.000000
vn 0.000000 -1.000000 0.000000
vn 0.000000 -1.000000 0.000000
vn 0.000000 -1.000000 0.000000
vn 0.000000 -1.000000 0.000000
vn 0.000000 -1.000000 0.000000
vn 0.000000 -1.000000 0.000000
vn 0.000000 -1.000000 0.000000
vn 0.000000 -1.000000 0.000000
vn 0.000000 -1.000000 0.000000
vn 0.000000 -1.000000 0.000000
vn 0.000000 -1.000000 0.000000
vn 0.000000 -1.000000 0.000000
vn 0.000000 -1.000000 0.000000
vn 0.000000 -1.000000 0.000000
vn 0.000000 -1.000000 0.000000
vn 0.000000 -1.000000 0.000000
vn 0.000000 -1.000000 0.000000
vn 0.000000 -1.000000 0.000000
vn 0.000000 -1.000000 0.000000
vn 0.000000 -1.000000 0.000000
vn 0.000000 -1.000000 0.000000
vn 0.000000 -1.000000 0.000000
vn 0.000000 -1.000000 0.000000
vn 0.000000 -1.000000 0.000000
vn 0.000000 -1.000000 0.000000
vn 0.000000 -1.000000 0.000000
vn 1.000000 0.000000 0.000000
vn 1.000000 0.000000 0.000000
vn 1.000000 0.000000 0.000000
vn 1.000000 0.000000 0.000000
vn 1.000000 0.000000 0.000000
vn 1.000000 0.000000 0.000000
vn 1.000000 0.000000 0.000000
vn 1.000000 0.000000 0.000000
vn 1.000000 0.000000 0.000000
vn 1.000000 0.000000 0.000000
vn 1.000000 0.000000 0.000000
vn 1.000000 0.000000 0.000000
vn 1.000000 0.000000 0.000000
vn 1.000000 0.000000 0.000000
vn 1.000000 0.000000 0.000000
vn 1.000000 0.000000 0.000000
vn 1.000000 0.000000 0.000000
vn 1.000000 0.000000 0.000000
vn 1.000000 0.000000 0.000000
vn 1.000000 0.000000 0.000000
vn 1.000000 0.000000 0.000000
vn 1.000000 0.000000 0.000000
vn 1.000000 0.000000 0.000000
vn 1.000000 0.000000 0.000000
vn 1.000000 0.000000 0.000000
vn 1.000000 0.000000 0.000000
vn 1.000000 0.000000 0.000000
vn 1.000000 0.000000 0.000000
vn 1.000000 0.000000 0.000000
vn 1.000000 0.000000 0.000000
vn 1.000000 0.000000 0.000000
vn 1.000000 0.000000 0.000000
vn 1.000000 0.000000 0.000000
vn 1.000000 0.000000 0.000000
vn 1.000000 0.000000 0.000000
vn 1.000000 0.000000 0.000000
vn 1.000000 0.000000 0.000000
vn 1.000000 0.000000 0.000000
vn 1.000000 0.000000 0.000000
vn 1.000000 0.000000 0.000000
vn 1.000000 0.000000 0.000000
vn 1.000000 0.000000 0.000000
vn 1.000000 0.000000 0.000000
vn 1.000000 0.000000 0.000000
vn 1.000000 0.000000 0.000000
vn 1.000000 0.000000 0.000000
vn 1.000000 0.000000 0.000000
vn 1.000000 0.000000 0.000000
vn 1.000000 0.000000 0.000000
vn 1.000000 0.000000 0.000000
vn 1.000000 0.000000 0.000000
vn 1.000000 0.000000 0.000000
vn 1.000000 0.000000 0.000000
vn 1.000000 0.000000 0.000000
vn 1.000000 0.000000 0.000000
vn 1.000000 0.000000 0.000000
vn 1.000000 0.000000 0.000000
vn 1.000000 0.000000 0.000000
vn 1.000000 0.000000 0.000000
vn 1.000000 0.000000 0.000000
vn 1.000000 0.000000 0.000000
vn 1.000000 0.000000 0.000000
vn 1.000000 0.000000 0.000000
vn 1.000000 0.000000 0.000000
vn -1.000000 0.000000 0.000000
vn -1.000000 0.000000 0.000000
vn -1.000000 0.000000 0.000000
vn -1.000000 0.000000 0.000000
vn -1.000000 0.000000 0.000000
vn -1.000000 0.000000 0.000000
vn -1.000000 0.000000 0.000000
vn -1.000000 0.000000 0.000000
vn -1.000000 0.000000 0.000000
vn -1.000000 0.000000 0.000000
vn -1.000000 0.000000 0.000000
vn -1.000000 0.000000 0.000000
vn -1.000000 0.000000 0.000000
vn -1.000000 0.000000 0.000000
vn -1.000000 0.000000 0.000000
vn -1.000000 0.000000 0.000000
vn -1.000000 0.000000 0.000000
vn -1.000000 0.000000 0.000000
vn -1.000000 0.000000 0.000000
vn -1.000000 0.000000 0.000000
vn -1.000000 0.000000 0.000000
vn -1.000000 0.000000 0.000000
vn -1.000000 0.000000 0.000000
vn -1.000000 0.000000 0.000000
vn -1.000000 0.000000 0.000000
vn -1.000000 0.000000 0.000000
vn -1.000000 0.000000 0.000000
vn -1.000000 0.000000 0.000000
vn -1.000000 0.000000 0.000000
vn -1.000000 0.000000 0.000000
vn -1.000000 0.000000 0.000000
vn -1.000000 0.000000 0.000000
vn -1.000000 0.000000 0.000000
vn -1.000000 0.000000 0.000000
vn -1.000000 0.000000 0.000000
vn -1.000000 0.000000 0.000000
vn -1.000000 0.000000 0.000000
vn -1.000000 0.000000 0.000000
vn -1.000000 0.000000 0.000000
vn -1.000000 0.000000 0.000000
vn -1.000000 0.000000 0.000000
vn -1.000000 0.000000 0.000000
vn -1.000000 0.000000 0.000000
vn -1.000000 0.000000 0.000000
vn -1.000000 0.000000 0.000000
vn -1.000000 0.000000 0.000000
vn -1.000000 0.000000 0.000000
vn -1.000000 0.000000 0.000000
vn -1.000000 0.000000 0.000000
vn -1.000000 0.000000 0.000000
vn -1.000000 0.000000 0.000000
vn -1.000000 0.000000 0.000000
vn -1.000000 0.000000 0.000000
vn -1.000000 0.000000 0.000000
vn -1.000000 0.000000 0.000000
vn -1.000000 0.000000 0.000000
vn -1.000000 0.000000 0.000000
vn -1.000000 0.000000 0.000000
vn -1.000000 0.000000 0.000000
vn -1.000000 0.000000 0.000000
vn -1.000000 0.000000 0.000000
vn -1.000000 0.000000 0.000000
vn -1.000000 0.000000 0.000000
vn -1.000000 0.000000 0.000000
s off
g Box01
usemtl box1
f 1/1/1 2/2/2 7/3/3 6/4/4
f 2/2/5 3/5/6 8/6/7 7/3/8
f 3/5/9 4/7/10 9/8/11 8/6/12
f 4/7/13 5/9/14 10/10/15 9/8/16
f 6/4/17 7/3/18 12/11/19 11/12/20
f 7/3/21 8/6/22 13/13/23 12/11/24
f 8/6/25 9/8/26 14/14/27 13/13/28
f 9/8/29 10/10/30 15/15/31 14/14/32
f 11/12/33 12/11/34 17/16/35 16/17/36
f 12/11/37 13/13/38 18/18/39 17/16/40
f 13/13/41 14/14/42 19/19/43 18/18/44
f 14/14/45 15/15/46 20/20/47 19/19/48
f 16/17/49 17/16/50 22/21/51 21/22/52
f 17/16/53 18/18/54 23/23/55 22/21/56
f 18/18/57 19/19/58 24/24/59 23/23/60
f 19/19/61 20/20/62 25/25/63 24/24/64
f 21/22/65 22/26/66 27/27/67 26/28/68
f 22/26/69 23/29/70 28/30/71 27/27/72
f 23/29/73 24/31/74 29/32/75 28/30/76
f 24/31/77 25/33/78 30/34/79 29/32/80
f 26/28/81 27/27/82 32/35/83 31/36/84
f 27/27/85 28/30/86 33/37/87 32/35/88
f 28/30/89 29/32/90 34/38/91 33/37/92
f 29/32/93 30/34/94 35/39/95 34/38/96
f 31/36/97 32/35/98 37/40/99 36/41/100
f 32/35/101 33/37/102 38/42/103 37/40/104
f 33/37/105 34/38/106 39/43/107 38/42/108
f 34/38/109 35/39/110 40/44/111 39/43/112
f 36/41/113 37/40/114 42/45/115 41/46/116
f 37/40/117 38/42/118 43/47/119 42/45/120
f 38/42/121 39/43/122 44/48/123 43/47/124
f 39/43/125 40/44/126 45/49/127 44/48/128
f 41/46/129 42/50/130 47/51/131 46/52/132
f 42/50/133 43/53/134 48/54/135 47/51/136
f 43/53/137 44/55/138 49/56/139 48/54/140
f 44/55/141 45/57/142 50/58/143 49/56/144
f 46/52/145 47/51/146 52/59/147 51/60/148
f 47/51/149 48/54/150 53/61/151 52/59/152
f 48/54/153 49/56/154 54/62/155 53/61/156
f 49/56/157 50/58/158 55/63/159 54/62/160
f 51/60/161 52/59/162 57/64/163 56/65/164
f 52/59/165 53/61/166 58/66/167 57/64/168
f 53/61/169 54/62/170 59/67/171 58/66/172
f 54/62/173 55/63/174 60/68/175 59/67/176
f 56/65/177 57/64/178 62/69/179 61/70/180
f 57/64/181 58/66/182 63/71/183 62/69/184
f 58/66/185 59/67/186 64/72/187 63/71/188
f 59/67/189 60/68/190 65/73/191 64/72/192
f 61/70/193 62/74/194 67/75/195 66/76/196
f 62/74/197 63/77/198 68/78/199 67/75/200
f 63/77/201 64/79/202 69/80/203 68/78/204
f 64/79/205 65/81/206 70/82/207 69/80/208
f 66/76/209 67/75/210 72/83/211 71/84/212
f 67/75/213 68/78/214 73/85/215 72/83/216
f 68/78/217 69/80/218 74/86/219 73/85/220
f 69/80/221 70/82/222 75/87/223 74/86/224
f 71/84/225 72/83/226 77/88/227 76/89/228
f 72/83/229 73/85/230 78/90/231 77/88/232
f 73/85/233 74/86/234 79/91/235 78/90/236
f 74/86/237 75/87/238 80/92/239 79/91/240
f 76/89/241 77/88/242 2/93/243 1/1/244
f 77/88/245 78/90/246 3/94/247 2/93/248
f 78/90/249 79/91/250 4/95/251 3/94/252
f 79/91/253 80/92/254 5/96/255 4/95/256
f 70/97/257 65/73/258 60/68/259 81/98/260
f 75/99/261 70/97/262 81/98/263 82/100/264
f 80/101/265 75/99/266 82/100/267 83/102/268
f 5/103/269 80/101/270 83/102/271 10/104/272
f 81/98/273 60/68/274 55/63/275 84/105/276
f 82/100/277 81/98/278 84/105/279 85/106/280
f 83/102/281 82/100/282 85/106/283 86/107/284
f 10/104/285 83/102/286 86/107/287 15/108/288
f 84/105/289 55/63/290 50/58/291 87/109/292
f 85/106/293 84/105/294 87/109/295 88/110/296
f 86/107/297 85/106/298 88/110/299 89/111/300
f 15/108/301 86/107/302 89/111/303 20/112/304
f 87/109/305 50/58/306 45/57/307 40/113/308
f 88/110/309 87/109/310 40/113/311 35/114/312
f 89/111/313 88/110/314 35/114/315 30/115/316
f 20/112/317 89/111/318 30/115/319 25/116/320
f 61/70/321 66/76/322 90/117/323 56/65/324
f 66/76/325 71/84/326 91/118/327 90/117/328
f 71/84/329 76/89/330 92/119/331 91/118/332
f 76/89/333 1/1/334 6/4/335 92/119/336
f 56/65/337 90/117/338 93/120/339 51/60/340
f 90/117/341 91/118/342 94/121/343 93/120/344
f 91/118/345 92/119/346 95/122/347 94/121/348
f 92/119/349 6/4/350 11/12/351 95/122/352
f 51/60/353 93/120/354 96/123/355 46/52/356
f 93/120/357 94/121/358 97/124/359 96/123/360
f 94/121/361 95/122/362 98/125/363 97/124/364
f 95/122/365 11/12/366 16/17/367 98/125/368
f 46/52/369 96/123/370 36/41/371 41/46/372
f 96/123/373 97/124/374 31/36/375 36/41/376
f 97/124/377 98/125/378 26/28/379 31/36/380
f 98/125/381 16/17/382 21/22/383 26/28/384
