# Alias OBJ Model File
# Exported from SketchUp, (c) 2000-2012 Trimble Navigation Limited
# File units = meters

mtllib roadV2.mtl

g Mesh1 Model

usemtl FrontColor
v 0 0.07806 -5.49599
vt 216.378 3.07323
vn 1 0 -0
v 0 0.07806 -2.07384
vt 81.6472 3.07323
v 0 -0.01 -2.07384
vt 81.6472 -0.393701
v 0 -0.01 -5.49599
vt 216.378 -0.393701
f 1/1/1 2/2/1 3/3/1 4/4/1 

vt 0 216.378
vn 0 -1 -0
v 0.128621 0.07806 -5.49599
vt -5.06381 216.378
v 0.128621 0.07806 -2.07384
vt -5.06381 81.6472
vt 0 81.6472
f 1/5/2 5/6/2 6/7/2 2/8/2 

vt -3.82626e-013 -0.393701
vn -1.76832e-015 -9.00465e-015 1
v 0.138822 -0.01 -5.49599
vt 5.46545 -0.393701
v 0.138822 -0.001194 -5.49599
vt 5.46545 -0.0470079
v 0.138822 0.0678584 -5.49599
vt 5.46545 2.67159
v 0.138735 0.06919 -5.49599
vt 5.46201 2.72401
v 0.138475 0.0704988 -5.49599
vt 5.45176 2.77554
v 0.138046 0.0717624 -5.49599
vt 5.43488 2.82529
v 0.137456 0.0729592 -5.49599
vt 5.41164 2.87241
v 0.136714 0.0740687 -5.49599
vt 5.38245 2.91609
v 0.135834 0.075072 -5.49599
vt 5.34781 2.95559
v 0.134831 0.0759519 -5.49599
vt 5.30831 2.99023
v 0.133722 0.0766932 -5.49599
vt 5.26463 3.01942
v 0.132525 0.0772834 -5.49599
vt 5.21751 3.04266
v 0.131261 0.0777124 -5.49599
vt 5.16776 3.05954
v 0.129952 0.0779727 -5.49599
vt 5.11624 3.06979
vt 5.06381 3.07323
vt -3.82626e-013 3.07323
f 4/9/3 7/10/3 8/11/3 9/12/3 10/13/3 11/14/3 12/15/3 13/16/3 14/17/3 15/18/3 16/19/3 17/20/3 18/21/3 19/22/3 20/23/3 5/24/3 1/25/3 

vt -2.25698e-019 216.378
vn -5.73273e-019 1 3.69544e-019
vt -2.25698e-019 81.6472
v 0.138822 -0.01 -2.07384
vt 5.46545 81.6472
v 2.05999 -0.01 -2.07384
vt 81.1021 81.6472
v 2.20089 -0.01 -2.07384
vt 86.6492 81.6472
v 2.2015 -0.01 -5.49599
vt 86.6732 216.378
v 2.05967 -0.01 -5.49599
vt 81.0893 216.378
vt 5.46545 216.378
f 4/26/4 3/27/4 21/28/4 22/29/4 23/30/4 24/31/4 25/32/4 7/33/4 

v 0.138822 0.0678584 -2.07384
vt -5.46545 2.67159
vn 9.03017e-016 -6.70259e-015 -1
v 0.138822 -0.001194 -2.07384
vt -5.46545 -0.0470079
vt -5.46545 -0.393701
vt 7.37288e-014 -0.393701
vt 7.37288e-014 3.07323
vt -5.06381 3.07323
v 0.129952 0.0779727 -2.07384
vt -5.11624 3.06979
v 0.131261 0.0777124 -2.07384
vt -5.16776 3.05954
v 0.132525 0.0772834 -2.07384
vt -5.21751 3.04266
v 0.133722 0.0766932 -2.07384
vt -5.26463 3.01942
v 0.134831 0.0759519 -2.07384
vt -5.30831 2.99023
v 0.135834 0.075072 -2.07384
vt -5.34781 2.95559
v 0.136714 0.0740687 -2.07384
vt -5.38245 2.91609
v 0.137456 0.0729592 -2.07384
vt -5.41164 2.87241
v 0.138046 0.0717624 -2.07384
vt -5.43488 2.82529
v 0.138475 0.0704988 -2.07384
vt -5.45176 2.77554
v 0.138735 0.06919 -2.07384
vt -5.46201 2.72401
f 26/34/5 27/35/5 21/36/5 3/37/5 2/38/5 6/39/5 28/40/5 29/41/5 30/42/5 31/43/5 32/44/5 33/45/5 34/46/5 35/47/5 36/48/5 37/49/5 38/50/5 

vt -81.6472 2.67159
vn -1 0 -0
vt -216.378 2.67159
vt -216.378 -0.0470079
vt -81.6472 -0.0470079
f 26/51/6 9/52/6 8/53/6 27/54/6 

vt -81.6472 2.30841
vn -0.997859 -0.0654031 1.04082e-033
vt -81.6472 2.36095
vn -0.991445 -0.130526 5.21525e-034
vt -216.378 2.36095
vt -216.378 2.30841
f 26/55/7 38/56/8 10/57/8 9/58/7 

vt -81.6472 1.60609
vt -81.6472 1.65862
vn -0.965926 -0.258819 -0
vt -216.378 1.65862
vt -216.378 1.60609
f 38/59/8 37/60/9 11/61/9 10/62/8 

vt -81.6472 0.875832
vt -81.6472 0.928369
vn -0.92388 -0.382683 -0
vt -216.378 0.928369
vt -216.378 0.875832
f 37/63/9 36/64/10 12/65/10 11/66/9 

vt -81.6472 0.130141
vt -81.6472 0.182678
vn -0.866025 -0.5 -0
vt -216.378 0.182678
vt -216.378 0.130141
f 36/67/10 35/68/11 13/69/11 12/70/10 

vt -81.6472 -0.618226
vt -81.6472 -0.565689
vn -0.793353 -0.608761 -0
vt -216.378 -0.565689
vt -216.378 -0.618226
f 35/71/11 34/72/12 14/73/12 13/74/11 

vt -81.6472 -1.35646
vt -81.6472 -1.30393
vn -0.707107 -0.707107 -0
vt -216.378 -1.30393
vt -216.378 -1.35646
f 34/75/12 33/76/13 15/77/13 14/78/12 

vt -81.6472 -2.07194
vt -81.6472 -2.01941
vn -0.608761 -0.793353 -0
vt -216.378 -2.01941
vt -216.378 -2.07194
f 33/79/13 32/80/14 16/81/14 15/82/13 

vt -81.6472 -2.75242
vt -81.6472 -2.69988
vn -0.5 -0.866025 -0
vt -216.378 -2.69988
vt -216.378 -2.75242
f 32/83/14 31/84/15 17/85/15 16/86/14 

vt -81.6472 -3.38625
vt -81.6472 -3.33371
vn -0.382683 -0.92388 -0
vt -216.378 -3.33371
vt -216.378 -3.38625
f 31/87/15 30/88/16 18/89/16 17/90/15 

vt -81.6472 -3.96259
vt -81.6472 -3.91005
vn -0.258819 -0.965926 -0
vt -216.378 -3.91005
vt -216.378 -3.96259
f 30/91/16 29/92/17 19/93/17 18/94/16 

vt -81.6472 -4.47158
vt -81.6472 -4.41904
vn -0.130526 -0.991445 3.53407e-035
vt -216.378 -4.41904
vt -216.378 -4.47158
f 29/95/17 28/96/18 20/97/18 19/98/17 

vt -81.6472 -4.90451
vt -81.6472 -4.85197
vn -0.0654031 -0.997859 7.05301e-035
vt -216.378 -4.85197
vt -216.378 -4.90451
f 28/99/18 6/100/19 5/101/19 20/102/18 

vt -5.46545 216.378
vn -1.616e-019 -1 -9.06977e-020
v 2.05967 -0.001194 -5.49599
vt -81.0893 216.378
v 2.05999 -0.001194 -2.07384
vt -81.1021 81.6472
vt -5.46545 81.6472
f 8/103/20 39/104/20 40/105/20 27/106/20 

vt 81.0893 -0.0470079
vn 1.65478e-016 -1.08287e-013 1
vt 81.0893 -0.393701
f 39/107/21 8/11/21 7/10/21 25/108/21 

v 2.05967 0.057458 -5.49599
vt 81.0893 2.26213
vn 1.40012e-014 -3.56015e-014 1
vt 86.6732 -0.393701
v 2.2015 0.069254 -5.49599
vt 86.6732 2.72654
v 2.07146 0.069254 -5.49599
vt 81.5537 2.72654
v 2.06992 0.0691531 -5.49599
vt 81.4931 2.72256
v 2.06841 0.0688521 -5.49599
vt 81.4335 2.71071
v 2.06695 0.0683561 -5.49599
vt 81.376 2.69118
v 2.06557 0.0676736 -5.49599
vt 81.3215 2.66432
v 2.06428 0.0668164 -5.49599
vt 81.271 2.63057
v 2.06312 0.065799 -5.49599
vt 81.2253 2.59051
v 2.06211 0.064639 -5.49599
vt 81.1853 2.54484
v 2.06125 0.063356 -5.49599
vt 81.1515 2.49433
v 2.06057 0.0619721 -5.49599
vt 81.1246 2.43985
v 2.06007 0.060511 -5.49599
vt 81.1051 2.38232
v 2.05977 0.0589977 -5.49599
vt 81.0933 2.32274
f 41/109/22 39/107/22 25/108/22 24/110/22 42/111/22 43/112/22 44/113/22 45/114/22 46/115/22 47/116/22 48/117/22 49/118/22 50/119/22 51/120/22 52/121/22 53/122/22 54/123/22 

vt 81.6395 -0.0470079
vn 1 1.3766e-018 -9.51547e-005
vt 216.37 -0.0470079
vt 216.37 2.26213
v 2.05999 0.057458 -2.07384
vt 81.6395 2.26213
f 40/124/23 39/125/23 41/126/23 55/127/23 

vt -81.6626 -0.393701
vn -1 3.8658e-018 -0.00017831
v 2.20089 0.069254 -2.07384
vt -81.6626 2.72654
vt -216.393 2.72654
vt -216.393 -0.393701
f 23/128/24 56/129/24 42/130/24 24/131/24 

vt -86.6492 -0.393701
vn -2.08361e-012 1.60425e-014 -1
vt -86.6492 2.72654
v 2.2015 0.069254 -2.07384
vt -86.6732 2.72654
f 23/132/25 56/133/25 57/134/25

vn 8.82793e-015 -1.21432e-014 -1
vt -81.1021 -0.393701
vt -81.1021 -0.0470079
v 2.05967 0.057458 -2.07384
vt -81.0893 2.26213
v 2.05977 0.0589977 -2.07384
vt -81.0933 2.32274
v 2.05999 0.0601274 -2.07384
vt -81.1021 2.36722
v 2.06007 0.060511 -2.07384
vt -81.1051 2.38232
v 2.06057 0.0619721 -2.07384
vt -81.1246 2.43985
v 2.06125 0.063356 -2.07384
vt -81.1515 2.49433
v 2.06211 0.064639 -2.07384
vt -81.1853 2.54484
v 2.06312 0.065799 -2.07384
vt -81.2253 2.59051
v 2.06428 0.0668164 -2.07384
vt -81.271 2.63057
v 2.06557 0.0676736 -2.07384
vt -81.3215 2.66432
v 2.06695 0.0683561 -2.07384
vt -81.376 2.69118
v 2.06841 0.0688521 -2.07384
vt -81.4335 2.71071
v 2.06992 0.0691531 -2.07384
vt -81.4931 2.72256
v 2.07146 0.069254 -2.07384
vt -81.5537 2.72654
f 23/132/26 22/135/26 40/136/26 58/137/26 59/138/26 60/139/26 61/140/26 62/141/26 63/142/26 64/143/26 65/144/26 66/145/26 67/146/26 68/147/26 69/148/26 70/149/26 71/150/26 56/133/26 

vn -8.27249e-017 1.80478e-014 -1
f 27/35/27 40/136/27 22/135/27 21/36/27 

vt 216.378 7.56078
vn 0.997859 -0.0654031 1.51715e-013
vt 216.378 7.62152
vn 0.991445 -0.130526 1.60113e-013
vt 81.6472 7.62152
vt 81.6472 7.56078
f 41/151/28 54/152/29 59/153/29 58/154/28 

vt 216.378 18.0986
vt 216.378 18.1594
vn 0.965926 -0.258819 1.7482e-013
vt 81.6472 18.1594
vt 81.6472 18.144
vn 0.980785 -0.19509 1.67826e-013
vt 81.6472 18.0986
f 54/155/29 53/156/30 61/157/30 60/158/31 59/159/29 

vt 216.378 28.3263
vt 216.378 28.387
vn 0.92388 -0.382683 1.86535e-013
vt 81.6472 28.387
vt 81.6472 28.3263
f 53/160/30 52/161/32 62/162/32 61/163/30 

vt 216.378 38.0687
vt 216.378 38.1295
vn 0.866025 -0.5 1.95058e-013
vt 81.6472 38.1295
vt 81.6472 38.0687
f 52/164/32 51/165/33 63/166/33 62/167/32 

vt 216.378 47.1593
vt 216.378 47.2201
vn 0.793353 -0.608761 2.00244e-013
vt 81.6472 47.2201
vt 81.6472 47.1593
f 51/168/33 50/169/34 64/170/34 63/171/33 

vt 216.378 55.4425
vt 216.378 55.5032
vn 0.707107 -0.707107 2.02004e-013
vt 81.6472 55.5032
vt 81.6472 55.4425
f 50/172/34 49/173/35 65/174/35 64/175/34 

vt 216.378 62.7765
vt 216.378 62.8372
vn 0.608761 -0.793353 2.00308e-013
vt 81.6472 62.8372
vt 81.6472 62.7765
f 49/176/35 48/177/36 66/178/36 65/179/35 

vt 216.378 69.0358
vt 216.378 69.0966
vn 0.5 -0.866025 1.95184e-013
vt 81.6472 69.0966
vt 81.6472 69.0358
f 48/180/36 47/181/37 67/182/37 66/183/36 

vt 216.378 74.1134
vt 216.378 74.1742
vn 0.382683 -0.92388 1.8672e-013
vt 81.6472 74.1742
vt 81.6472 74.1134
f 47/184/37 46/185/38 68/186/38 67/187/37 

vt 216.378 77.9224
vt 216.378 77.9832
vn 0.258819 -0.965926 1.75062e-013
vt 81.6472 77.9832
vt 81.6472 77.9224
f 46/188/38 45/189/39 69/190/39 68/191/38 

vt 216.378 80.3976
vt 216.378 80.4584
vn 0.130526 -0.991445 1.22318e-013
vt 81.6472 80.4584
vt 81.6472 80.3976
f 45/192/39 44/193/40 70/194/40 69/195/39 

vt 216.378 81.4967
vt 216.378 81.5574
vn 0.0654031 -0.997859 7.60172e-014
vt 81.6472 81.5574
vt 81.6472 81.4967
f 44/196/40 43/197/41 71/198/41 70/199/40 

vt -81.5537 216.378
vn 1.14579e-016 -1 4.36407e-018
vt -86.6732 216.378
vt -86.6492 81.6472
vt -81.5537 81.6472
f 43/200/42 42/201/42 56/202/42 71/203/42 

vt -86.6732 81.6472
vn -4.88347e-014 -1 -0
f 57/204/43 56/202/43 42/201/43

